<svg fill="#9CA3AF" xmlns="http://www.w3.org/2000/svg" viewBox="0 0 96 96" xml:space="preserve">
                            <circle transform="translate(-2, 0)" cx="50" cy="20" r="10"/>
                            <path transform="translate(-2, 0)" d="M60 33.333A6.665 6.665 0 0 1 66.667 40v3.333H33.333V40A6.667 6.667 0 0 1 40 33.333h20z"/>
                            <circle transform="translate(-2, 0)" cx="26.667" cy="66.667" r="10"/>
                            <path transform="translate(-2, 0)" d="M36.667 80a6.664 6.664 0 0 1 6.666 6.667V90H10v-3.333A6.667 6.667 0 0 1 16.667 80h20zM63.021 27.302c6.221 4.192 10.313 11.299 10.313 19.365 0 1.738-.205 3.428-.566 5.059.192-.01.371-.059.566-.059 2.136 0 4.16.462 6 1.27a30.1 30.1 0 0 0 .667-6.27c0-11.127-6.071-20.814-15.068-25.993a14.814 14.814 0 0 1-1.912 6.628zM26.667 51.667c.195 0 .374.049.566.059a23.365 23.365 0 0 1-.566-5.059c0-8.066 4.092-15.176 10.313-19.365a14.747 14.747 0 0 1-1.911-6.631C26.071 25.85 20 35.54 20 46.667c0 2.151.234 4.248.667 6.27a14.876 14.876 0 0 1 6-1.27zM58.506 68.376C55.869 69.411 53.005 70 50 70s-5.866-.589-8.506-1.621c-.264 2.292-1.006 4.431-2.188 6.289C42.63 75.94 46.228 76.667 50 76.667s7.366-.727 10.693-1.999c-1.181-1.858-1.923-3.997-2.187-6.292z"/>
                            <circle transform="translate(-2, 0)" cx="73.333" cy="66.667" r="10"/>
                            <path transform="translate(-2, 0)" d="M83.333 80A6.665 6.665 0 0 1 90 86.667V90H56.667v-3.333A6.666 6.666 0 0 1 63.333 80h20z"/>
                        </svg>